<?xml version="1.0" encoding="utf-8"?>
<!-- Generator: Adobe Illustrator 23.0.1, SVG Export Plug-In . SVG Version: 6.00 Build 0)  -->
<svg version="1.1" xmlns="http://www.w3.org/2000/svg" xmlns:xlink="http://www.w3.org/1999/xlink" x="0px" y="0px"
	 viewBox="0 0 800 800" style="enable-background:new 0 0 800 800;" xml:space="preserve">
<style type="text/css">
	.st0{opacity:0;fill:#AFAFAF;}
	.st1{opacity:0.0244;fill:#AFAFAF;}
	.st2{opacity:0.0488;fill:#AFAFAF;}
	.st3{opacity:0.0732;fill:#AFAFAF;}
	.st4{opacity:0.0976;fill:#AFAFAF;}
	.st5{opacity:0.122;fill:#AFAFAF;}
	.st6{opacity:0.1463;fill:#AFAFAF;}
	.st7{opacity:0.1707;fill:#AFAFAF;}
	.st8{opacity:0.1951;fill:#AFAFAF;}
	.st9{opacity:0.2195;fill:#AFAFAF;}
	.st10{opacity:0.2439;fill:#AFAFAF;}
	.st11{opacity:0.2683;fill:#AFAFAF;}
	.st12{opacity:0.2927;fill:#AFAFAF;}
	.st13{opacity:0.3171;fill:#AFAFAF;}
	.st14{opacity:0.3415;fill:#AFAFAF;}
	.st15{opacity:0.3659;fill:#AFAFAF;}
	.st16{opacity:0.3902;fill:#AFAFAF;}
	.st17{opacity:0.4146;fill:#AFAFAF;}
	.st18{opacity:0.439;fill:#AFAFAF;}
	.st19{opacity:0.4634;fill:#AFAFAF;}
	.st20{opacity:0.4878;fill:#AFAFAF;}
	.st21{opacity:0.5122;fill:#AFAFAF;}
	.st22{opacity:0.5366;fill:#AFAFAF;}
	.st23{opacity:0.561;fill:#AFAFAF;}
	.st24{opacity:0.5854;fill:#AFAFAF;}
	.st25{opacity:0.6098;fill:#AFAFAF;}
	.st26{opacity:0.6341;fill:#AFAFAF;}
	.st27{opacity:0.6585;fill:#AFAFAF;}
	.st28{opacity:0.6829;fill:#AFAFAF;}
	.st29{opacity:0.7073;fill:#AFAFAF;}
	.st30{opacity:0.7317;fill:#AFAFAF;}
	.st31{opacity:0.7561;fill:#AFAFAF;}
	.st32{opacity:0.7805;fill:#AFAFAF;}
	.st33{opacity:0.8049;fill:#AFAFAF;}
	.st34{opacity:0.8293;fill:#AFAFAF;}
	.st35{opacity:0.8537;fill:#AFAFAF;}
	.st36{opacity:0.878;fill:#AFAFAF;}
	.st37{opacity:0.9024;fill:#AFAFAF;}
	.st38{opacity:0.9268;fill:#AFAFAF;}
	.st39{opacity:0.9512;fill:#AFAFAF;}
	.st40{opacity:0.9756;fill:#AFAFAF;}
	.st41{fill:#AFAFAF;}
	.st42{fill:#84C75D;}
	.st43{fill:#FFFFFF;}
</style>
<g id="Layer_1">
	<g>
		<path id="XMLID_2_" class="st0" d="M764.36,466.8c0-178.66-144.52-323.5-322.81-323.5c-178.29,0-322.83,144.83-322.83,323.5
			c0,178.67,144.53,323.54,322.83,323.54C619.84,790.35,764.36,645.47,764.36,466.8z"/>
		<path class="st1" d="M761.82,463.68c0-178.66-144.52-323.5-322.81-323.5c-178.29,0-322.83,144.83-322.83,323.5
			c0,178.67,144.53,323.54,322.83,323.54C617.29,787.23,761.82,642.35,761.82,463.68z"/>
		<path class="st2" d="M759.28,460.56c0-178.66-144.52-323.5-322.81-323.5c-178.29,0-322.83,144.83-322.83,323.5
			c0,178.67,144.53,323.54,322.83,323.54C614.75,784.11,759.28,639.23,759.28,460.56z"/>
		<path class="st3" d="M756.73,457.44c0-178.66-144.52-323.5-322.81-323.5c-178.29,0-322.83,144.83-322.83,323.5
			c0,178.67,144.53,323.54,322.83,323.54C612.21,780.98,756.73,636.11,756.73,457.44z"/>
		<path class="st4" d="M754.19,454.32c0-178.66-144.52-323.5-322.81-323.5c-178.29,0-322.83,144.83-322.83,323.5
			c0,178.67,144.53,323.54,322.83,323.54C609.66,777.86,754.19,632.99,754.19,454.32z"/>
		<path class="st5" d="M751.64,451.2c0-178.66-144.52-323.5-322.81-323.5c-178.29,0-322.83,144.83-322.83,323.5
			c0,178.67,144.53,323.54,322.83,323.54C607.12,774.74,751.64,629.86,751.64,451.2z"/>
		<path class="st6" d="M749.1,448.08c0-178.66-144.52-323.5-322.81-323.5c-178.29,0-322.83,144.83-322.83,323.5
			c0,178.67,144.53,323.54,322.83,323.54C604.57,771.62,749.1,626.74,749.1,448.08z"/>
		<path class="st7" d="M746.56,444.96c0-178.66-144.52-323.5-322.81-323.5c-178.29,0-322.83,144.83-322.83,323.5
			c0,178.67,144.53,323.54,322.83,323.54C602.03,768.5,746.56,623.62,746.56,444.96z"/>
		<path class="st8" d="M744.01,441.84c0-178.66-144.52-323.5-322.81-323.5c-178.29,0-322.83,144.83-322.83,323.5
			c0,178.67,144.53,323.54,322.83,323.54C599.49,765.38,744.01,620.5,744.01,441.84z"/>
		<path class="st9" d="M741.47,438.71c0-178.66-144.52-323.5-322.81-323.5c-178.29,0-322.83,144.83-322.83,323.5
			c0,178.67,144.53,323.54,322.83,323.54C596.94,762.26,741.47,617.38,741.47,438.71z"/>
		<path class="st10" d="M738.92,435.59c0-178.66-144.52-323.5-322.81-323.5c-178.29,0-322.83,144.83-322.83,323.5
			c0,178.67,144.53,323.54,322.83,323.54C594.4,759.14,738.92,614.26,738.92,435.59z"/>
		<path class="st11" d="M736.38,432.47c0-178.66-144.52-323.5-322.81-323.5c-178.29,0-322.83,144.83-322.83,323.5
			c0,178.67,144.53,323.54,322.83,323.54C591.85,756.02,736.38,611.14,736.38,432.47z"/>
		<path class="st12" d="M733.84,429.35c0-178.66-144.52-323.5-322.81-323.5c-178.29,0-322.83,144.83-322.83,323.5
			c0,178.67,144.53,323.54,322.83,323.54C589.31,752.9,733.84,608.02,733.84,429.35z"/>
		<path class="st13" d="M731.29,426.23c0-178.66-144.52-323.5-322.81-323.5c-178.29,0-322.83,144.83-322.83,323.5
			c0,178.67,144.53,323.54,322.83,323.54C586.77,749.77,731.29,604.9,731.29,426.23z"/>
		<path class="st14" d="M728.75,423.11c0-178.66-144.52-323.5-322.81-323.5c-178.29,0-322.83,144.83-322.83,323.5
			c0,178.67,144.53,323.54,322.83,323.54C584.22,746.65,728.75,601.78,728.75,423.11z"/>
		<path class="st15" d="M726.2,419.99c0-178.66-144.52-323.5-322.81-323.5c-178.29,0-322.83,144.83-322.83,323.5
			c0,178.67,144.53,323.54,322.83,323.54C581.68,743.53,726.2,598.65,726.2,419.99z"/>
		<path class="st16" d="M723.66,416.87c0-178.66-144.52-323.5-322.81-323.5c-178.29,0-322.83,144.83-322.83,323.5
			c0,178.67,144.53,323.54,322.83,323.54C579.13,740.41,723.66,595.53,723.66,416.87z"/>
		<path class="st17" d="M721.12,413.75c0-178.66-144.52-323.5-322.81-323.5c-178.29,0-322.83,144.83-322.83,323.5
			c0,178.67,144.53,323.54,322.83,323.54C576.59,737.29,721.12,592.41,721.12,413.75z"/>
		<path class="st18" d="M718.57,410.63c0-178.66-144.52-323.5-322.81-323.5c-178.29,0-322.83,144.83-322.83,323.5
			c0,178.67,144.53,323.54,322.83,323.54C574.05,734.17,718.57,589.29,718.57,410.63z"/>
		<path class="st19" d="M716.03,407.51c0-178.66-144.52-323.5-322.81-323.5c-178.29,0-322.83,144.83-322.83,323.5
			c0,178.67,144.53,323.54,322.83,323.54C571.5,731.05,716.03,586.17,716.03,407.51z"/>
		<path class="st20" d="M713.48,404.38c0-178.66-144.52-323.5-322.81-323.5c-178.29,0-322.83,144.83-322.83,323.5
			c0,178.67,144.53,323.54,322.83,323.54C568.96,727.93,713.48,583.05,713.48,404.38z"/>
		<path class="st21" d="M710.94,401.26c0-178.66-144.52-323.5-322.81-323.5c-178.29,0-322.83,144.83-322.83,323.5
			c0,178.67,144.53,323.54,322.83,323.54C566.41,724.81,710.94,579.93,710.94,401.26z"/>
		<path class="st22" d="M708.4,398.14c0-178.66-144.52-323.5-322.81-323.5c-178.29,0-322.83,144.83-322.83,323.5
			c0,178.67,144.53,323.54,322.83,323.54C563.87,721.69,708.4,576.81,708.4,398.14z"/>
		<path class="st23" d="M705.85,395.02c0-178.66-144.52-323.5-322.81-323.5c-178.29,0-322.83,144.83-322.83,323.5
			c0,178.67,144.53,323.54,322.83,323.54C561.33,718.57,705.85,573.69,705.85,395.02z"/>
		<path class="st24" d="M703.31,391.9c0-178.66-144.52-323.5-322.81-323.5c-178.29,0-322.83,144.83-322.83,323.5
			c0,178.67,144.53,323.54,322.83,323.54C558.78,715.44,703.31,570.57,703.31,391.9z"/>
		<path class="st25" d="M700.76,388.78c0-178.66-144.52-323.5-322.81-323.5c-178.29,0-322.83,144.83-322.83,323.5
			c0,178.67,144.53,323.54,322.83,323.54C556.24,712.32,700.76,567.45,700.76,388.78z"/>
		<path class="st26" d="M698.22,385.66c0-178.66-144.52-323.5-322.81-323.5C197.12,62.16,52.59,207,52.59,385.66
			c0,178.67,144.53,323.54,322.83,323.54C553.69,709.2,698.22,564.32,698.22,385.66z"/>
		<path class="st27" d="M695.68,382.54c0-178.66-144.52-323.5-322.81-323.5c-178.29,0-322.83,144.83-322.83,323.5
			c0,178.67,144.53,323.54,322.83,323.54C551.15,706.08,695.68,561.2,695.68,382.54z"/>
		<path class="st28" d="M693.13,379.42c0-178.66-144.52-323.5-322.81-323.5c-178.29,0-322.83,144.83-322.83,323.5
			c0,178.67,144.53,323.54,322.83,323.54C548.61,702.96,693.13,558.08,693.13,379.42z"/>
		<path class="st29" d="M690.59,376.3c0-178.66-144.52-323.5-322.81-323.5c-178.29,0-322.83,144.83-322.83,323.5
			c0,178.67,144.53,323.54,322.83,323.54C546.06,699.84,690.59,554.96,690.59,376.3z"/>
		<path class="st30" d="M688.04,373.18c0-178.66-144.52-323.5-322.81-323.5c-178.29,0-322.83,144.83-322.83,323.5
			c0,178.67,144.53,323.54,322.83,323.54C543.52,696.72,688.04,551.84,688.04,373.18z"/>
		<path class="st31" d="M685.5,370.05c0-178.66-144.52-323.5-322.81-323.5c-178.29,0-322.83,144.83-322.83,323.5
			c0,178.67,144.53,323.54,322.83,323.54C540.97,693.6,685.5,548.72,685.5,370.05z"/>
		<path class="st32" d="M682.96,366.93c0-178.66-144.52-323.5-322.81-323.5c-178.29,0-322.83,144.83-322.83,323.5
			c0,178.67,144.53,323.54,322.83,323.54C538.43,690.48,682.96,545.6,682.96,366.93z"/>
		<path class="st33" d="M680.41,363.81c0-178.66-144.52-323.5-322.81-323.5c-178.29,0-322.83,144.83-322.83,323.5
			c0,178.67,144.53,323.54,322.83,323.54C535.89,687.36,680.41,542.48,680.41,363.81z"/>
		<path class="st34" d="M677.87,360.69c0-178.66-144.52-323.5-322.81-323.5c-178.29,0-322.83,144.83-322.83,323.5
			c0,178.67,144.53,323.54,322.83,323.54C533.34,684.24,677.87,539.36,677.87,360.69z"/>
		<path class="st35" d="M675.32,357.57c0-178.66-144.52-323.5-322.81-323.5c-178.29,0-322.83,144.83-322.83,323.5
			c0,178.67,144.53,323.54,322.83,323.54C530.8,681.11,675.32,536.24,675.32,357.57z"/>
		<path class="st36" d="M672.78,354.45c0-178.66-144.52-323.5-322.81-323.5c-178.29,0-322.83,144.83-322.83,323.5
			c0,178.67,144.53,323.54,322.83,323.54C528.25,677.99,672.78,533.12,672.78,354.45z"/>
		<path class="st37" d="M670.24,351.33c0-178.66-144.53-323.5-322.81-323.5c-178.29,0-322.83,144.83-322.83,323.5
			c0,178.67,144.53,323.54,322.83,323.54C525.71,674.87,670.24,529.99,670.24,351.33z"/>
		<path class="st38" d="M667.69,348.21c0-178.66-144.53-323.5-322.81-323.5c-178.29,0-322.83,144.83-322.83,323.5
			c0,178.67,144.53,323.54,322.83,323.54C523.17,671.75,667.69,526.87,667.69,348.21z"/>
		<path class="st39" d="M665.15,345.09c0-178.66-144.52-323.5-322.81-323.5c-178.29,0-322.83,144.83-322.83,323.5
			c0,178.67,144.53,323.54,322.83,323.54C520.62,668.63,665.15,523.75,665.15,345.09z"/>
		<path class="st40" d="M662.6,341.97c0-178.66-144.53-323.5-322.81-323.5c-178.29,0-322.83,144.83-322.83,323.5
			c0,178.67,144.53,323.54,322.83,323.54C518.08,665.51,662.6,520.63,662.6,341.97z"/>
		<path id="XMLID_1_" class="st41" d="M660.06,338.85c0-178.66-144.53-323.5-322.81-323.5c-178.29,0-322.83,144.83-322.83,323.5
			c0,178.67,144.53,323.54,322.83,323.54C515.53,662.39,660.06,517.51,660.06,338.85z"/>
	</g>
</g>
<g id="_x31_">
	<g>
		<g>
			<g>
				<g>
					<path id="XMLID_89_" class="st42" d="M660.29,338.44c0,178.68-144.53,323.53-322.81,323.53
						c-178.3,0-322.83-144.85-322.83-323.53c0-178.66,144.54-323.51,322.83-323.51C515.76,14.92,660.29,159.77,660.29,338.44z"/>
					<g>
						<path class="st43" d="M503.16,287.37c25.5-6.38,25.5-25.56,25.5-25.56h-63.71c-38.24-38.32-76.5-51.12-127.47-51.12
							c-50.99,0-89.24,12.8-127.49,51.12h-63.72c0,0,0.02,19.18,25.5,25.56c-4.71,6.49-9.86,14.95-14.31,24.11
							c-6.32,13.01-11.2,27.45-11.2,39.76c0,52.69,36.65,89.4,89.23,89.4c29.83,0,59.02-16.79,76.46-38.32l25.52,38.32l25.49-38.32
							c17.46,21.53,46.64,38.32,76.47,38.32c52.57,0,89.23-36.71,89.23-89.4c0-11.73-4.41-25.4-10.3-37.93
							C513.73,303.45,508.19,294.29,503.16,287.37z M235.5,415.08c-35.2,0-63.73-28.57-63.73-63.84c0-18.89,8.23-35.8,21.23-47.5
							c11.28-10.14,26.14-16.37,42.5-16.37c9.95,0,19.33,2.36,27.72,6.43c21.28,10.34,36,32.14,36,57.44
							C299.22,386.51,270.69,415.08,235.5,415.08z M337.48,389.56c0-36.77-16.91-73.5-40.97-98.09
							c-17.74-18.13-39.37-29.66-61-29.66c0,0,38.24-38.33,101.98-38.33c63.72,0,101.96,38.33,101.96,38.33
							c-21.75,0-43.48,11.66-61.27,29.94C354.25,316.35,337.48,352.95,337.48,389.56z M439.44,415.08
							c-35.2,0-63.71-28.57-63.71-63.84c0-24.88,14.2-46.37,34.89-56.91c8.67-4.42,18.43-6.96,28.82-6.96
							c17.2,0,32.78,6.86,44.24,17.95c12,11.62,19.48,27.87,19.48,45.92C503.16,386.51,474.64,415.08,439.44,415.08z"/>
						<path id="XMLID_83_" class="st43" d="M439.44,338.44c-7.03,0-12.74,5.73-12.74,12.79c0,7.04,5.71,12.77,12.74,12.77
							c7.04,0,12.75-5.71,12.75-12.77C452.19,344.17,446.47,338.44,439.44,338.44z"/>
						<path class="st43" d="M439.44,312.89c-21.11,0-38.25,17.18-38.25,38.35c0,21.17,17.14,38.32,38.25,38.32
							c21.11,0,38.26-17.15,38.26-38.32C477.69,330.07,460.55,312.89,439.44,312.89z M439.44,376.79c-14.07,0-25.5-11.44-25.5-25.55
							c0-14.11,11.44-25.58,25.5-25.58c14.07,0,25.52,11.47,25.52,25.58C464.95,365.34,453.5,376.79,439.44,376.79z"/>
						<path id="XMLID_80_" class="st43" d="M235.5,338.44c-7.04,0-12.75,5.73-12.75,12.79c0,7.04,5.71,12.77,12.75,12.77
							c7.03,0,12.74-5.71,12.74-12.77C248.24,344.17,242.53,338.44,235.5,338.44z"/>
						<path class="st43" d="M235.5,312.89c-21.13,0-38.25,17.18-38.25,38.35c0,21.17,17.13,38.32,38.25,38.32
							c21.12,0,38.25-17.15,38.25-38.32C273.75,330.07,256.62,312.89,235.5,312.89z M235.5,376.79c-14.08,0-25.51-11.44-25.51-25.55
							c0-14.11,11.43-25.58,25.51-25.58c14.07,0,25.5,11.47,25.5,25.58C261,365.34,249.57,376.79,235.5,376.79z"/>
					</g>
				</g>
			</g>
		</g>
	</g>
</g>
</svg>
