<?xml version="1.0" encoding="utf-8"?>
<!-- Generator: Adobe Illustrator 23.0.1, SVG Export Plug-In . SVG Version: 6.00 Build 0)  -->
<svg version="1.1" xmlns="http://www.w3.org/2000/svg" xmlns:xlink="http://www.w3.org/1999/xlink" x="0px" y="0px"
	 viewBox="0 0 800 800" style="enable-background:new 0 0 800 800;" xml:space="preserve">
<style type="text/css">
	.st0{opacity:0.6;}
	.st1{opacity:0.8;fill:url(#SVGID_1_);}
	.st2{opacity:0;fill:#AFAFAF;}
	.st3{opacity:0.0244;fill:#AFAFAF;}
	.st4{opacity:0.0488;fill:#AFAFAF;}
	.st5{opacity:0.0732;fill:#AFAFAF;}
	.st6{opacity:0.0976;fill:#AFAFAF;}
	.st7{opacity:0.122;fill:#AFAFAF;}
	.st8{opacity:0.1463;fill:#AFAFAF;}
	.st9{opacity:0.1707;fill:#AFAFAF;}
	.st10{opacity:0.1951;fill:#AFAFAF;}
	.st11{opacity:0.2195;fill:#AFAFAF;}
	.st12{opacity:0.2439;fill:#AFAFAF;}
	.st13{opacity:0.2683;fill:#AFAFAF;}
	.st14{opacity:0.2927;fill:#AFAFAF;}
	.st15{opacity:0.3171;fill:#AFAFAF;}
	.st16{opacity:0.3415;fill:#AFAFAF;}
	.st17{opacity:0.3659;fill:#AFAFAF;}
	.st18{opacity:0.3902;fill:#AFAFAF;}
	.st19{opacity:0.4146;fill:#AFAFAF;}
	.st20{opacity:0.439;fill:#AFAFAF;}
	.st21{opacity:0.4634;fill:#AFAFAF;}
	.st22{opacity:0.4878;fill:#AFAFAF;}
	.st23{opacity:0.5122;fill:#AFAFAF;}
	.st24{opacity:0.5366;fill:#AFAFAF;}
	.st25{opacity:0.561;fill:#AFAFAF;}
	.st26{opacity:0.5854;fill:#AFAFAF;}
	.st27{opacity:0.6098;fill:#AFAFAF;}
	.st28{opacity:0.6341;fill:#AFAFAF;}
	.st29{opacity:0.6585;fill:#AFAFAF;}
	.st30{opacity:0.6829;fill:#AFAFAF;}
	.st31{opacity:0.7073;fill:#AFAFAF;}
	.st32{opacity:0.7317;fill:#AFAFAF;}
	.st33{opacity:0.7561;fill:#AFAFAF;}
	.st34{opacity:0.7805;fill:#AFAFAF;}
	.st35{opacity:0.8049;fill:#AFAFAF;}
	.st36{opacity:0.8293;fill:#AFAFAF;}
	.st37{opacity:0.8537;fill:#AFAFAF;}
	.st38{opacity:0.878;fill:#AFAFAF;}
	.st39{opacity:0.9024;fill:#AFAFAF;}
	.st40{opacity:0.9268;fill:#AFAFAF;}
	.st41{opacity:0.9512;fill:#AFAFAF;}
	.st42{opacity:0.9756;fill:#AFAFAF;}
	.st43{fill:#AFAFAF;}
	.st44{fill:#00A9FF;}
	.st45{fill:#FFFFFF;}
</style>
<g id="BACKGROUND" class="st0">
	<linearGradient id="SVGID_1_" gradientUnits="userSpaceOnUse" x1="9.094947e-13" y1="9.094947e-13" x2="800" y2="800">
		<stop  offset="0" style="stop-color:#FFFFFF"/>
		<stop  offset="1" style="stop-color:#E5E5E5"/>
	</linearGradient>
	<rect class="st1" width="800" height="800"/>
</g>
<g id="OBJECTS">
	<g>
		<g>
			<path id="XMLID_2_" class="st2" d="M762.72,464.48c0-178.64-144.84-323.52-323.49-323.52c-178.71,0-323.55,144.88-323.55,323.52
				C115.68,643.14,260.52,788,439.23,788C617.88,788,762.72,643.14,762.72,464.48z"/>
			<path class="st3" d="M760.17,461.36c0-178.64-144.84-323.52-323.49-323.52c-178.71,0-323.55,144.88-323.55,323.52
				c0,178.66,144.84,323.52,323.55,323.52C615.33,784.88,760.17,640.02,760.17,461.36z"/>
			<path class="st4" d="M757.62,458.24c0-178.64-144.84-323.52-323.49-323.52c-178.71,0-323.55,144.88-323.55,323.52
				c0,178.66,144.84,323.52,323.55,323.52C612.78,781.76,757.62,636.9,757.62,458.24z"/>
			<path class="st5" d="M755.07,455.12c0-178.64-144.84-323.52-323.49-323.52c-178.71,0-323.55,144.88-323.55,323.52
				c0,178.66,144.84,323.52,323.55,323.52C610.24,778.64,755.07,633.78,755.07,455.12z"/>
			<path class="st6" d="M752.52,452c0-178.64-144.84-323.52-323.49-323.52c-178.71,0-323.55,144.88-323.55,323.52
				c0,178.66,144.84,323.52,323.55,323.52C607.69,775.52,752.52,630.66,752.52,452z"/>
			<path class="st7" d="M749.97,448.87c0-178.64-144.84-323.52-323.49-323.52c-178.71,0-323.55,144.88-323.55,323.52
				c0,178.66,144.84,323.52,323.55,323.52C605.14,772.4,749.97,627.54,749.97,448.87z"/>
			<path class="st8" d="M747.42,445.75c0-178.64-144.84-323.52-323.49-323.52c-178.71,0-323.55,144.88-323.55,323.52
				c0,178.66,144.84,323.52,323.55,323.52C602.59,769.27,747.42,624.42,747.42,445.75z"/>
			<path class="st9" d="M744.87,442.63c0-178.64-144.84-323.52-323.49-323.52c-178.71,0-323.55,144.88-323.55,323.52
				c0,178.66,144.84,323.52,323.55,323.52C600.04,766.15,744.87,621.29,744.87,442.63z"/>
			<path class="st10" d="M742.32,439.51c0-178.64-144.84-323.52-323.49-323.52c-178.71,0-323.55,144.88-323.55,323.52
				c0,178.66,144.84,323.52,323.55,323.52C597.49,763.03,742.32,618.17,742.32,439.51z"/>
			<path class="st11" d="M739.78,436.39c0-178.64-144.84-323.52-323.49-323.52c-178.71,0-323.55,144.88-323.55,323.52
				c0,178.66,144.84,323.52,323.55,323.52C594.94,759.91,739.78,615.05,739.78,436.39z"/>
			<path class="st12" d="M737.23,433.27c0-178.64-144.84-323.52-323.49-323.52c-178.71,0-323.55,144.88-323.55,323.52
				c0,178.66,144.84,323.52,323.55,323.52C592.39,756.79,737.23,611.93,737.23,433.27z"/>
			<path class="st13" d="M734.68,430.15c0-178.64-144.84-323.52-323.49-323.52c-178.71,0-323.55,144.88-323.55,323.52
				c0,178.66,144.84,323.52,323.55,323.52C589.84,753.67,734.68,608.81,734.68,430.15z"/>
			<path class="st14" d="M732.13,427.03c0-178.64-144.84-323.52-323.49-323.52c-178.71,0-323.55,144.88-323.55,323.52
				c0,178.66,144.84,323.52,323.55,323.52C587.29,750.55,732.13,605.69,732.13,427.03z"/>
			<path class="st15" d="M729.58,423.91c0-178.64-144.84-323.52-323.49-323.52c-178.71,0-323.55,144.88-323.55,323.52
				c0,178.66,144.84,323.52,323.55,323.52C584.74,747.43,729.58,602.57,729.58,423.91z"/>
			<path class="st16" d="M727.03,420.79c0-178.64-144.84-323.52-323.49-323.52c-178.71,0-323.55,144.88-323.55,323.52
				c0,178.66,144.84,323.52,323.55,323.52C582.19,744.31,727.03,599.45,727.03,420.79z"/>
			<path class="st17" d="M724.48,417.67c0-178.64-144.84-323.52-323.49-323.52c-178.71,0-323.55,144.88-323.55,323.52
				c0,178.66,144.84,323.52,323.55,323.52C579.64,741.19,724.48,596.33,724.48,417.67z"/>
			<path class="st18" d="M721.93,414.54c0-178.64-144.84-323.52-323.49-323.52c-178.71,0-323.55,144.88-323.55,323.52
				c0,178.66,144.84,323.52,323.55,323.52C577.09,738.07,721.93,593.21,721.93,414.54z"/>
			<path class="st19" d="M719.38,411.42c0-178.64-144.84-323.52-323.49-323.52c-178.71,0-323.55,144.88-323.55,323.52
				c0,178.66,144.84,323.52,323.55,323.52C574.54,734.94,719.38,590.08,719.38,411.42z"/>
			<path class="st20" d="M716.83,408.3c0-178.64-144.84-323.52-323.49-323.52c-178.71,0-323.55,144.88-323.55,323.52
				c0,178.66,144.84,323.52,323.55,323.52C571.99,731.82,716.83,586.96,716.83,408.3z"/>
			<path class="st21" d="M714.28,405.18c0-178.64-144.84-323.52-323.49-323.52c-178.71,0-323.55,144.88-323.55,323.52
				c0,178.66,144.84,323.52,323.55,323.52C569.44,728.7,714.28,583.84,714.28,405.18z"/>
			<path class="st22" d="M711.73,402.06c0-178.64-144.84-323.52-323.49-323.52c-178.71,0-323.55,144.88-323.55,323.52
				c0,178.66,144.84,323.52,323.55,323.52C566.89,725.58,711.73,580.72,711.73,402.06z"/>
			<path class="st23" d="M709.18,398.94c0-178.64-144.84-323.52-323.49-323.52c-178.71,0-323.55,144.88-323.55,323.52
				c0,178.66,144.84,323.52,323.55,323.52C564.34,722.46,709.18,577.6,709.18,398.94z"/>
			<path class="st24" d="M706.63,395.82c0-178.64-144.84-323.52-323.49-323.52c-178.71,0-323.55,144.88-323.55,323.52
				c0,178.66,144.84,323.52,323.55,323.52C561.8,719.34,706.63,574.48,706.63,395.82z"/>
			<path class="st25" d="M704.08,392.7c0-178.64-144.84-323.52-323.49-323.52c-178.71,0-323.55,144.88-323.55,323.52
				c0,178.66,144.84,323.52,323.55,323.52C559.25,716.22,704.08,571.36,704.08,392.7z"/>
			<path class="st26" d="M701.53,389.58c0-178.64-144.84-323.52-323.49-323.52C199.33,66.06,54.5,210.94,54.5,389.58
				c0,178.66,144.84,323.52,323.55,323.52C556.7,713.1,701.53,568.24,701.53,389.58z"/>
			<path class="st27" d="M698.98,386.46c0-178.64-144.84-323.52-323.49-323.52c-178.71,0-323.55,144.88-323.55,323.52
				c0,178.66,144.84,323.52,323.55,323.52C554.15,709.98,698.98,565.12,698.98,386.46z"/>
			<path class="st28" d="M696.43,383.34c0-178.64-144.84-323.52-323.49-323.52C194.23,59.81,49.4,204.7,49.4,383.34
				c0,178.66,144.84,323.52,323.54,323.52C551.6,706.86,696.43,562,696.43,383.34z"/>
			<path class="st29" d="M693.88,380.21c0-178.64-144.84-323.52-323.49-323.52c-178.71,0-323.54,144.88-323.54,323.52
				c0,178.66,144.84,323.52,323.54,323.52C549.05,703.74,693.88,558.88,693.88,380.21z"/>
			<path class="st30" d="M691.34,377.09c0-178.64-144.84-323.52-323.49-323.52C189.13,53.57,44.3,198.45,44.3,377.09
				c0,178.66,144.84,323.52,323.54,323.52C546.5,700.61,691.34,555.75,691.34,377.09z"/>
			<path class="st31" d="M688.79,373.97c0-178.64-144.84-323.52-323.49-323.52c-178.71,0-323.54,144.88-323.54,323.52
				c0,178.66,144.84,323.52,323.54,323.52C543.95,697.49,688.79,552.63,688.79,373.97z"/>
			<path class="st32" d="M686.24,370.85c0-178.64-144.84-323.52-323.49-323.52C184.04,47.33,39.2,192.21,39.2,370.85
				c0,178.66,144.84,323.52,323.54,323.52C541.4,694.37,686.24,549.51,686.24,370.85z"/>
			<path class="st33" d="M683.69,367.73c0-178.64-144.84-323.52-323.49-323.52c-178.71,0-323.54,144.88-323.54,323.52
				c0,178.66,144.84,323.52,323.54,323.52C538.85,691.25,683.69,546.39,683.69,367.73z"/>
			<path class="st34" d="M681.14,364.61c0-178.64-144.84-323.52-323.49-323.52C178.94,41.09,34.1,185.97,34.1,364.61
				c0,178.66,144.84,323.52,323.54,323.52C536.3,688.13,681.14,543.27,681.14,364.61z"/>
			<path class="st35" d="M678.59,361.49c0-178.64-144.84-323.52-323.49-323.52c-178.71,0-323.54,144.88-323.54,323.52
				c0,178.66,144.84,323.52,323.54,323.52C533.75,685.01,678.59,540.15,678.59,361.49z"/>
			<path class="st36" d="M676.04,358.37c0-178.64-144.84-323.52-323.49-323.52C173.84,34.85,29,179.73,29,358.37
				c0,178.66,144.84,323.52,323.54,323.52C531.2,681.89,676.04,537.03,676.04,358.37z"/>
			<path class="st37" d="M673.49,355.25c0-178.64-144.84-323.52-323.49-323.52c-178.71,0-323.54,144.88-323.54,323.52
				c0,178.66,144.84,323.52,323.54,323.52C528.65,678.77,673.49,533.91,673.49,355.25z"/>
			<path class="st38" d="M670.94,352.13c0-178.64-144.84-323.52-323.49-323.52C168.74,28.6,23.9,173.49,23.9,352.13
				c0,178.66,144.84,323.52,323.54,323.52C526.1,675.65,670.94,530.79,670.94,352.13z"/>
			<path class="st39" d="M668.39,349.01c0-178.64-144.84-323.52-323.49-323.52c-178.71,0-323.54,144.88-323.54,323.52
				c0,178.66,144.84,323.52,323.54,323.52C523.55,672.53,668.39,527.67,668.39,349.01z"/>
			<path class="st40" d="M665.84,345.88c0-178.64-144.84-323.52-323.49-323.52C163.64,22.36,18.8,167.25,18.8,345.88
				c0,178.66,144.84,323.52,323.54,323.52C521,669.41,665.84,524.55,665.84,345.88z"/>
			<path class="st41" d="M663.29,342.76c0-178.64-144.84-323.52-323.49-323.52c-178.71,0-323.54,144.88-323.54,323.52
				c0,178.66,144.84,323.52,323.54,323.52C518.45,666.28,663.29,521.42,663.29,342.76z"/>
			<path class="st42" d="M660.74,339.64C660.74,161,515.9,16.12,337.25,16.12C158.54,16.12,13.7,161,13.7,339.64
				c0,178.66,144.84,323.52,323.54,323.52C515.9,663.16,660.74,518.3,660.74,339.64z"/>
			<path id="XMLID_1_" class="st43" d="M658.19,336.52C658.19,157.88,513.36,13,334.7,13C155.99,13,11.15,157.88,11.15,336.52
				c0,178.66,144.84,323.52,323.54,323.52C513.36,660.04,658.19,515.18,658.19,336.52z"/>
		</g>
		<g>
			<path id="XMLID_49_" class="st44" d="M658.19,336.52C658.19,157.88,513.36,13,334.7,13C155.99,13,11.15,157.88,11.15,336.52
				c0,178.66,144.84,323.52,323.54,323.52C513.36,660.04,658.19,515.18,658.19,336.52z"/>
			<path id="XMLID_47_" class="st45" d="M522.41,239.45c-12.95,5.25-26.83,8.84-41.29,10.55c15.33-9.01,27.27-23.02,33.51-39.76
				c0.39-1.05-0.77-2.01-1.75-1.46c-14.45,8.05-30.3,13.95-47.13,17.2c-14.31-15.04-34.75-24.44-57.4-24.44
				c-43.37,0-78.6,34.66-78.6,77.39c0,6.07,0.71,11.97,2.03,17.64c-65.12-3.24-122.88-33.85-161.66-80.39
				c-0.2-0.23-0.57-0.2-0.72,0.06c-6.52,11.31-10.32,24.43-10.32,38.38c0,26.23,13.29,49.45,33.61,63.46
				c0.4,0.27,0.19,0.9-0.29,0.88c-12.01-0.63-23.32-3.93-33.3-9.26c-0.28-0.15-0.62,0.03-0.6,0.35c0.19,3.4,1.3,18.57,5.31,28.32
				c9.91,24.15,31.27,42.62,57.76,47.86c-6.62,1.73-13.61,2.74-20.76,2.74c-4.78,0-9.48-0.47-14.1-1.31
				c-0.33-0.06-0.6,0.26-0.5,0.57c10.14,29.96,38.35,51.87,71.89,53c0.45,0.01,0.64,0.58,0.28,0.85
				c-26.76,20.3-60.18,32.35-96.61,32.35c-6.36,0-12.54-0.36-18.72-1.06c34.79,21.94,76.12,34.75,120.5,34.75
				c61.17,0,110.61-21.09,147.3-53.17c37.02-32.37,61.06-75.93,71.07-120.3c3.53-15.61,5.38-31.35,5.38-46.72
				c0-3.33-0.09-6.69-0.26-10c14.22-10.12,26.7-22.54,36.82-36.65C524.57,240.27,523.53,238.99,522.41,239.45z"/>
		</g>
	</g>
</g>
</svg>
