<?xml version="1.0" encoding="utf-8"?>
<!-- Generator: Adobe Illustrator 23.0.1, SVG Export Plug-In . SVG Version: 6.00 Build 0)  -->
<svg version="1.1" xmlns="http://www.w3.org/2000/svg" xmlns:xlink="http://www.w3.org/1999/xlink" x="0px" y="0px"
	 viewBox="0 0 800 800" style="enable-background:new 0 0 800 800;" xml:space="preserve">
<style type="text/css">
	.st0{opacity:0.6;}
	.st1{opacity:0.8;fill:url(#SVGID_1_);}
	.st2{opacity:0;fill:#AFAFAF;}
	.st3{opacity:0.0244;fill:#AFAFAF;}
	.st4{opacity:0.0488;fill:#AFAFAF;}
	.st5{opacity:0.0732;fill:#AFAFAF;}
	.st6{opacity:0.0976;fill:#AFAFAF;}
	.st7{opacity:0.122;fill:#AFAFAF;}
	.st8{opacity:0.1463;fill:#AFAFAF;}
	.st9{opacity:0.1707;fill:#AFAFAF;}
	.st10{opacity:0.1951;fill:#AFAFAF;}
	.st11{opacity:0.2195;fill:#AFAFAF;}
	.st12{opacity:0.2439;fill:#AFAFAF;}
	.st13{opacity:0.2683;fill:#AFAFAF;}
	.st14{opacity:0.2927;fill:#AFAFAF;}
	.st15{opacity:0.3171;fill:#AFAFAF;}
	.st16{opacity:0.3415;fill:#AFAFAF;}
	.st17{opacity:0.3659;fill:#AFAFAF;}
	.st18{opacity:0.3902;fill:#AFAFAF;}
	.st19{opacity:0.4146;fill:#AFAFAF;}
	.st20{opacity:0.439;fill:#AFAFAF;}
	.st21{opacity:0.4634;fill:#AFAFAF;}
	.st22{opacity:0.4878;fill:#AFAFAF;}
	.st23{opacity:0.5122;fill:#AFAFAF;}
	.st24{opacity:0.5366;fill:#AFAFAF;}
	.st25{opacity:0.561;fill:#AFAFAF;}
	.st26{opacity:0.5854;fill:#AFAFAF;}
	.st27{opacity:0.6098;fill:#AFAFAF;}
	.st28{opacity:0.6341;fill:#AFAFAF;}
	.st29{opacity:0.6585;fill:#AFAFAF;}
	.st30{opacity:0.6829;fill:#AFAFAF;}
	.st31{opacity:0.7073;fill:#AFAFAF;}
	.st32{opacity:0.7317;fill:#AFAFAF;}
	.st33{opacity:0.7561;fill:#AFAFAF;}
	.st34{opacity:0.7805;fill:#AFAFAF;}
	.st35{opacity:0.8049;fill:#AFAFAF;}
	.st36{opacity:0.8293;fill:#AFAFAF;}
	.st37{opacity:0.8537;fill:#AFAFAF;}
	.st38{opacity:0.878;fill:#AFAFAF;}
	.st39{opacity:0.9024;fill:#AFAFAF;}
	.st40{opacity:0.9268;fill:#AFAFAF;}
	.st41{opacity:0.9512;fill:#AFAFAF;}
	.st42{opacity:0.9756;fill:#AFAFAF;}
	.st43{fill:#AFAFAF;}
	.st44{fill:#D40C18;}
	.st45{fill:#FFFFFF;}
	.st46{fill:#DB0C0B;}
</style>
<g id="BACKGROUND" class="st0">
	<linearGradient id="SVGID_1_" gradientUnits="userSpaceOnUse" x1="9.094947e-13" y1="9.094947e-13" x2="800" y2="800">
		<stop  offset="0" style="stop-color:#FFFFFF"/>
		<stop  offset="1" style="stop-color:#E5E5E5"/>
	</linearGradient>
	<rect class="st1" width="800" height="800"/>
</g>
<g id="OBJECTS">
	<g>
		<g>
			<path id="XMLID_2_" class="st2" d="M763.87,463.46c0-178.66-144.84-323.5-323.51-323.5c-178.68,0-323.52,144.83-323.52,323.5
				C116.84,642.12,261.68,787,440.36,787C619.03,787,763.87,642.12,763.87,463.46z"/>
			<path class="st3" d="M761.32,460.34c0-178.66-144.84-323.5-323.51-323.5c-178.68,0-323.52,144.83-323.52,323.5
				c0,178.67,144.84,323.54,323.52,323.54C616.48,783.88,761.32,639,761.32,460.34z"/>
			<path class="st4" d="M758.77,457.22c0-178.66-144.84-323.5-323.51-323.5c-178.68,0-323.52,144.83-323.52,323.5
				c0,178.67,144.84,323.54,323.52,323.54C613.93,780.76,758.77,635.88,758.77,457.22z"/>
			<path class="st5" d="M756.22,454.1c0-178.66-144.84-323.5-323.51-323.5c-178.68,0-323.52,144.83-323.52,323.5
				c0,178.67,144.84,323.54,323.52,323.54C611.38,777.64,756.22,632.76,756.22,454.1z"/>
			<path class="st6" d="M753.67,450.97c0-178.66-144.84-323.5-323.51-323.5c-178.68,0-323.52,144.83-323.52,323.5
				c0,178.67,144.84,323.54,323.52,323.54C608.83,774.52,753.67,629.64,753.67,450.97z"/>
			<path class="st7" d="M751.12,447.85c0-178.66-144.84-323.5-323.51-323.5c-178.68,0-323.52,144.83-323.52,323.5
				c0,178.67,144.84,323.54,323.52,323.54C606.28,771.4,751.12,626.52,751.12,447.85z"/>
			<path class="st8" d="M748.57,444.73c0-178.66-144.84-323.5-323.51-323.5c-178.68,0-323.52,144.83-323.52,323.5
				c0,178.67,144.84,323.54,323.52,323.54C603.73,768.28,748.57,623.4,748.57,444.73z"/>
			<path class="st9" d="M746.02,441.61c0-178.66-144.84-323.5-323.51-323.5c-178.68,0-323.52,144.83-323.52,323.5
				c0,178.67,144.84,323.54,323.52,323.54C601.18,765.16,746.02,620.28,746.02,441.61z"/>
			<path class="st10" d="M743.47,438.49c0-178.66-144.84-323.5-323.51-323.5c-178.68,0-323.52,144.83-323.52,323.5
				c0,178.67,144.84,323.54,323.52,323.54C598.63,762.03,743.47,617.16,743.47,438.49z"/>
			<path class="st11" d="M740.92,435.37c0-178.66-144.84-323.5-323.51-323.5c-178.68,0-323.52,144.83-323.52,323.5
				c0,178.67,144.84,323.54,323.52,323.54C596.08,758.91,740.92,614.04,740.92,435.37z"/>
			<path class="st12" d="M738.37,432.25c0-178.66-144.84-323.5-323.51-323.5c-178.68,0-323.52,144.83-323.52,323.5
				c0,178.67,144.84,323.54,323.52,323.54C593.54,755.79,738.37,610.91,738.37,432.25z"/>
			<path class="st13" d="M735.82,429.13c0-178.66-144.84-323.5-323.51-323.5c-178.68,0-323.52,144.83-323.52,323.5
				c0,178.67,144.84,323.54,323.52,323.54C590.99,752.67,735.82,607.79,735.82,429.13z"/>
			<path class="st14" d="M733.27,426.01c0-178.66-144.84-323.5-323.51-323.5c-178.68,0-323.52,144.83-323.52,323.5
				c0,178.67,144.84,323.54,323.52,323.54C588.44,749.55,733.27,604.67,733.27,426.01z"/>
			<path class="st15" d="M730.72,422.89c0-178.66-144.84-323.5-323.51-323.5c-178.68,0-323.52,144.83-323.52,323.5
				c0,178.67,144.84,323.54,323.52,323.54C585.89,746.43,730.72,601.55,730.72,422.89z"/>
			<path class="st16" d="M728.17,419.77c0-178.66-144.84-323.5-323.51-323.5c-178.68,0-323.52,144.83-323.52,323.5
				c0,178.67,144.84,323.54,323.52,323.54C583.34,743.31,728.17,598.43,728.17,419.77z"/>
			<path class="st17" d="M725.63,416.64c0-178.66-144.84-323.5-323.51-323.5c-178.68,0-323.52,144.83-323.52,323.5
				c0,178.67,144.84,323.54,323.52,323.54C580.79,740.19,725.63,595.31,725.63,416.64z"/>
			<path class="st18" d="M723.08,413.52c0-178.66-144.84-323.5-323.51-323.5c-178.68,0-323.52,144.83-323.52,323.5
				c0,178.67,144.84,323.54,323.52,323.54C578.24,737.07,723.08,592.19,723.08,413.52z"/>
			<path class="st19" d="M720.53,410.4c0-178.66-144.84-323.5-323.51-323.5C218.34,86.9,73.5,231.74,73.5,410.4
				c0,178.67,144.84,323.54,323.52,323.54C575.69,733.95,720.53,589.07,720.53,410.4z"/>
			<path class="st20" d="M717.98,407.28c0-178.66-144.84-323.5-323.51-323.5c-178.68,0-323.52,144.83-323.52,323.5
				c0,178.67,144.84,323.54,323.52,323.54C573.14,730.83,717.98,585.95,717.98,407.28z"/>
			<path class="st21" d="M715.43,404.16c0-178.66-144.84-323.5-323.51-323.5C213.24,80.66,68.4,225.5,68.4,404.16
				c0,178.67,144.84,323.54,323.52,323.54C570.59,727.7,715.43,582.83,715.43,404.16z"/>
			<path class="st22" d="M712.88,401.04c0-178.66-144.84-323.5-323.51-323.5c-178.68,0-323.52,144.83-323.52,323.5
				c0,178.67,144.84,323.54,323.52,323.54C568.04,724.58,712.88,579.71,712.88,401.04z"/>
			<path class="st23" d="M710.33,397.92c0-178.66-144.84-323.5-323.51-323.5c-178.68,0-323.52,144.83-323.52,323.5
				c0,178.67,144.84,323.54,323.52,323.54C565.49,721.46,710.33,576.58,710.33,397.92z"/>
			<path class="st24" d="M707.78,394.8c0-178.66-144.84-323.5-323.51-323.5c-178.68,0-323.52,144.83-323.52,323.5
				c0,178.67,144.84,323.54,323.52,323.54C562.94,718.34,707.78,573.46,707.78,394.8z"/>
			<path class="st25" d="M705.23,391.68c0-178.66-144.84-323.5-323.51-323.5c-178.68,0-323.52,144.83-323.52,323.5
				c0,178.67,144.84,323.54,323.52,323.54C560.39,715.22,705.23,570.34,705.23,391.68z"/>
			<path class="st26" d="M702.68,388.56c0-178.66-144.84-323.5-323.51-323.5c-178.68,0-323.52,144.83-323.52,323.5
				c0,178.67,144.84,323.54,323.52,323.54C557.84,712.1,702.68,567.22,702.68,388.56z"/>
			<path class="st27" d="M700.13,385.44c0-178.66-144.84-323.5-323.51-323.5c-178.68,0-323.52,144.83-323.52,323.5
				c0,178.67,144.84,323.54,323.52,323.54C555.29,708.98,700.13,564.1,700.13,385.44z"/>
			<path class="st28" d="M697.58,382.31c0-178.66-144.84-323.5-323.51-323.5c-178.68,0-323.52,144.83-323.52,323.5
				c0,178.67,144.84,323.54,323.52,323.54C552.74,705.86,697.58,560.98,697.58,382.31z"/>
			<path class="st29" d="M695.03,379.19c0-178.66-144.84-323.5-323.51-323.5C192.84,55.7,48,200.53,48,379.19
				c0,178.67,144.84,323.54,323.52,323.54C550.19,702.74,695.03,557.86,695.03,379.19z"/>
			<path class="st30" d="M692.48,376.07c0-178.66-144.84-323.5-323.51-323.5c-178.68,0-323.52,144.83-323.52,323.5
				c0,178.67,144.84,323.54,323.52,323.54C547.64,699.62,692.48,554.74,692.48,376.07z"/>
			<path class="st31" d="M689.93,372.95c0-178.66-144.84-323.5-323.51-323.5c-178.68,0-323.52,144.83-323.52,323.5
				c0,178.67,144.84,323.54,323.52,323.54C545.09,696.5,689.93,551.62,689.93,372.95z"/>
			<path class="st32" d="M687.38,369.83c0-178.66-144.84-323.5-323.51-323.5c-178.68,0-323.52,144.83-323.52,323.5
				c0,178.67,144.84,323.54,323.52,323.54C542.54,693.37,687.38,548.5,687.38,369.83z"/>
			<path class="st33" d="M684.83,366.71c0-178.66-144.84-323.5-323.51-323.5c-178.68,0-323.52,144.83-323.52,323.5
				c0,178.67,144.84,323.54,323.52,323.54C540,690.25,684.83,545.38,684.83,366.71z"/>
			<path class="st34" d="M682.28,363.59c0-178.66-144.84-323.5-323.51-323.5c-178.68,0-323.52,144.83-323.52,323.5
				c0,178.67,144.84,323.54,323.52,323.54C537.45,687.13,682.28,542.25,682.28,363.59z"/>
			<path class="st35" d="M679.73,360.47c0-178.66-144.84-323.5-323.51-323.5C177.55,36.97,32.7,181.8,32.7,360.47
				c0,178.67,144.84,323.54,323.52,323.54C534.9,684.01,679.73,539.13,679.73,360.47z"/>
			<path class="st36" d="M677.18,357.35c0-178.66-144.84-323.5-323.51-323.5C175,33.85,30.15,178.68,30.15,357.35
				c0,178.67,144.84,323.54,323.52,323.54C532.35,680.89,677.18,536.01,677.18,357.35z"/>
			<path class="st37" d="M674.64,354.23c0-178.66-144.84-323.5-323.51-323.5c-178.68,0-323.52,144.83-323.52,323.5
				c0,178.67,144.84,323.54,323.52,323.54C529.8,677.77,674.64,532.89,674.64,354.23z"/>
			<path class="st38" d="M672.09,351.11c0-178.66-144.84-323.5-323.51-323.5c-178.68,0-323.52,144.83-323.52,323.5
				c0,178.67,144.84,323.54,323.52,323.54C527.25,674.65,672.09,529.77,672.09,351.11z"/>
			<path class="st39" d="M669.54,347.98c0-178.66-144.84-323.5-323.51-323.5c-178.68,0-323.52,144.83-323.52,323.5
				c0,178.67,144.84,323.54,323.52,323.54C524.7,671.53,669.54,526.65,669.54,347.98z"/>
			<path class="st40" d="M666.99,344.86c0-178.66-144.84-323.5-323.51-323.5c-178.68,0-323.52,144.83-323.52,323.5
				c0,178.67,144.84,323.54,323.52,323.54C522.15,668.41,666.99,523.53,666.99,344.86z"/>
			<path class="st41" d="M664.44,341.74c0-178.66-144.84-323.5-323.51-323.5c-178.68,0-323.52,144.83-323.52,323.5
				c0,178.67,144.84,323.54,323.52,323.54C519.6,665.29,664.44,520.41,664.44,341.74z"/>
			<path class="st42" d="M661.89,338.62c0-178.66-144.84-323.5-323.51-323.5c-178.68,0-323.52,144.83-323.52,323.5
				c0,178.67,144.84,323.54,323.52,323.54C517.05,662.16,661.89,517.29,661.89,338.62z"/>
			<path id="XMLID_1_" class="st43" d="M659.34,335.5C659.34,156.84,514.5,12,335.83,12C157.15,12,12.31,156.84,12.31,335.5
				c0,178.67,144.84,323.54,323.52,323.54C514.5,659.04,659.34,514.17,659.34,335.5z"/>
		</g>
		<g>
			<path id="XMLID_41_" class="st44" d="M659.34,335.5C659.34,156.84,514.5,12,335.83,12C157.15,12,12.31,156.84,12.31,335.5
				c0,178.67,144.84,323.54,323.52,323.54C514.5,659.04,659.34,514.17,659.34,335.5z"/>
			<path class="st45" d="M480.85,454.93H190.82c-9.82,0-17.78-7.96-17.78-17.78V233.94c0-9.82,7.96-17.78,17.78-17.78h290.03
				c9.82,0,17.78,7.96,17.78,17.78v203.21C498.63,446.97,490.67,454.93,480.85,454.93z"/>
			<path class="st46" d="M402,336.27L293.27,395c-3.63,1.96-8.04-0.67-8.04-4.79l-0.05-117.94c0-4.14,4.42-6.77,8.06-4.79
				l108.78,59.21C405.81,328.75,405.81,334.21,402,336.27z"/>
		</g>
	</g>
</g>
</svg>
